# File created by Blade
# Date/Time:  Fri Jan 16 19:32:27 2015
#---------------------------------------------------------
:version 1.10
:name HOM
:units
  mass 1.0
  length 1.000000
  angle deg
:documentation
     Acclaim Skeleton File
:root
   axis xyz
   order TX TY TZ RX RY RZ
   position 0.000000 0.000000 0.000000
   orientation 0 0 0
:bonedata
   begin
      id 1
      name Spine_dum
      direction 0.000000 1.000000 0.000000
      length 7.067664
      axis 0.0 0.0 0.0 xyz
   end
   begin
      id 2
      name LeftUpLeg_dum
      direction 1.000000 0.000000 0.000000
      length 4.013002
      axis 0.0 0.0 0.0 xyz
   end
   begin
      id 3
      name RightUpLeg_dum
      direction -1.000000 0.000000 0.000000
      length 4.013002
      axis 0.0 0.0 0.0 xyz
   end
   begin
      id 4
      name Spine
      direction 0.000000 1.000000 0.000000
      length 0.000000
      axis 0.0 0.0 0.0 xyz
      dof rx ry rz
   end
   begin
      id 5
      name Spine_dum1
      direction 0.000000 1.000000 0.000000
      length 15.039886
      axis 0.0 0.0 0.0 xyz
   end
   begin
      id 6
      name Spine_dum2
      direction 0.000000 1.000000 0.000000
      length 10.530368
      axis 0.0 0.0 0.0 xyz
   end
   begin
      id 7
      name Spine_dum3
      direction 0.000000 1.000000 0.000000
      length 10.530368
      axis 0.0 0.0 0.0 xyz
   end
   begin
      id 8
      name Head
      direction 0.000000 1.000000 0.000000
      length 4.527550
      axis 0.0 0.0 0.0 xyz
      dof rx ry rz
   end
   begin
      id 9
      name LeftShoulder
      direction 1.000000 0.000000 0.000000
      length 7.028855
      axis 0.0 0.0 -90.0 xyz
      dof rx ry rz
   end
   begin
      id 10
      name LeftArm
      direction 1.000000 0.000000 0.000000
      length 10.797705
      axis 0.0 0.0 -90.0 xyz
      dof rx ry rz
   end
   begin
      id 11
      name LeftForeArm
      direction 1.000000 0.000000 0.000000
      length 7.907442
      axis 0.0 0.0 -90.0 xyz
      dof ry rz rx
   end
   begin
      id 12
      name LeftHand
      direction 0.000000 0.000000 0.000000
      length 0.000000
      axis 0.0 0.0 -90.0 xyz
      dof rx ry rz
   end
   begin
      id 13
      name LeftHand_dum1
      direction 0.000000 0.000000 0.000000
      length 0.000000
      axis 0.0 0.0 -90.0 xyz
   end
   begin
      id 14
      name LeftHand_dum2
      direction 1.000000 0.000000 0.000000
      length 3.937000
      axis 0.0 0.0 -90.0 xyz
   end
   begin
      id 15
      name LeftHandThumb1
      direction 0.000000 0.000000 1.000000
      length 3.937000
      axis 0.0 0.0 -90.0 xyz
      dof rx rz ry
   end
   begin
      id 16
      name RightShoulder
      direction -1.000000 0.000000 0.000000
      length 7.028855
      axis 0.0 0.0 90.0 xyz
      dof rx ry rz
   end
   begin
      id 17
      name RightArm
      direction -1.000000 0.000000 0.000000
      length 10.797705
      axis 0.0 0.0 90.0 xyz
      dof rx ry rz
   end
   begin
      id 18
      name RightForeArm
      direction -1.000000 0.000000 0.000000
      length 7.907442
      axis 0.0 0.0 90.0 xyz
      dof ry rz rx
   end
   begin
      id 19
      name RightHand
      direction 0.000000 0.000000 0.000000
      length 0.000000
      axis 0.0 0.0 90.0 xyz
      dof rx ry rz
   end
   begin
      id 20
      name RightHand_dum1
      direction 0.000000 0.000000 0.000000
      length 0.000000
      axis 0.0 0.0 90.0 xyz
   end
   begin
      id 21
      name RightHand_dum2
      direction -1.000000 0.000000 0.000000
      length 3.937000
      axis 0.0 0.0 90.0 xyz
   end
   begin
      id 22
      name RightHandThumb1
      direction 0.000000 0.000000 1.000000
      length 3.937000
      axis 0.0 0.0 90.0 xyz
      dof rx rz ry
   end
   begin
      id 23
      name LeftUpLeg
      direction 0.000000 -1.000000 0.000000
      length 16.899758
      axis 0.0 0.0 0.0 xyz
      dof rx ry rz
   end
   begin
      id 24
      name LeftLeg
      direction 0.000000 -1.000000 0.000000
      length 17.389183
      axis 0.0 0.0 0.0 xyz
      dof rx ry rz
   end
   begin
      id 25
      name LeftFoot
      direction 0.000000 -0.258819 0.965926
      length 4.924528
      axis 15.0 0.0 0.0 xyz
      dof rx ry rz
   end
   begin
      id 26
      name LeftToeBase
      direction 0.000000 0.000000 1.000000
      length 2.952750
      axis 0.0 0.0 0.0 xyz
      dof rx ry rz
   end
   begin
      id 27
      name RightUpLeg
      direction 0.000000 -1.000000 0.000000
      length 16.899758
      axis 0.0 0.0 0.0 xyz
      dof rx ry rz
   end
   begin
      id 28
      name RightLeg
      direction 0.000000 -1.000000 0.000000
      length 17.389183
      axis 0.0 0.0 0.0 xyz
      dof rx ry rz
   end
   begin
      id 29
      name RightFoot
      direction 0.000000 -0.258819 0.965926
      length 4.924528
      axis 15.0 0.0 0.0 xyz
      dof rx ry rz
   end
   begin
      id 30
      name RightToeBase
      direction 0.000000 0.000000 1.000000
      length 2.952750
      axis 0.0 0.0 0.0 xyz
      dof rx ry rz
   end
:hierarchy
   begin
      root Spine_dum LeftUpLeg_dum RightUpLeg_dum
      Spine_dum Spine
      LeftUpLeg_dum LeftUpLeg
      RightUpLeg_dum RightUpLeg
      Spine Spine_dum1 Spine_dum2 Spine_dum3
      Spine_dum1 Head
      Spine_dum2 LeftShoulder
      Spine_dum3 RightShoulder
      LeftShoulder LeftArm
      LeftArm LeftForeArm
      LeftForeArm LeftHand
      LeftHand LeftHand_dum1 LeftHand_dum2
      LeftHand_dum1 LeftHandThumb1
      RightShoulder RightArm
      RightArm RightForeArm
      RightForeArm RightHand
      RightHand RightHand_dum1 RightHand_dum2
      RightHand_dum1 RightHandThumb1
      LeftUpLeg LeftLeg
      LeftLeg LeftFoot
      LeftFoot LeftToeBase
      RightUpLeg RightLeg
      RightLeg RightFoot
      RightFoot RightToeBase
   end

# File created by Blade
# Date/Time:  Fri Jan 16 19:32:17 2015
# Frame Rate: 120.000 fps
#------------------------------------------------------
:FULLY-SPECIFIED
:DEGREES
1
root 19.050217 35.442497 -20.619896 10.176471 2.268435 -1.684433
Spine -22.595125 -0.983471 1.452565
Head 5.470409 0.828529 -0.347850
LeftShoulder -13.345868 -29.768209 18.864984
LeftArm 4.155619 4.502720 -9.598362
LeftForeArm 9.657958 0.000000 -2.701264
LeftHand -7.365911 0.000000 -8.613946
LeftHandThumb1 -26.253704 0.000000 33.147579
RightShoulder -12.298639 -7.462600 -7.952290
RightArm 9.483454 35.389557 14.749373
RightForeArm -37.329645 -0.000000 4.566811
RightHand -5.404221 -0.000000 10.321677
RightHandThumb1 -24.326973 -0.000000 -32.862282
LeftUpLeg -1.039690 8.295685 2.554555
LeftLeg -6.711126 -0.000000 0.000000
LeftFoot -20.710361 27.860429 -12.966049
LeftToeBase 26.809482 -0.000000 -0.000000
RightUpLeg -1.316263 -11.850169 0.671809
RightLeg -4.282938 -0.000000 0.000000
RightFoot -20.933073 -22.127816 16.419060
RightToeBase 25.855663 -0.000000 -0.000000
2
root 19.050987 35.442462 -20.618236 10.175671 2.263260 -1.686867
Spine -22.593182 -0.968393 1.432067
Head 5.478558 0.809129 -0.330586
LeftShoulder -13.346148 -29.769976 18.875382
LeftArm 4.156881 4.539760 -9.597988
LeftForeArm 9.624852 -0.000000 -2.697955
LeftHand -7.361454 -0.000000 -8.589907
LeftHandThumb1 -26.253704 0.000000 33.147579
RightShoulder -12.323560 -7.480345 -7.944744
RightArm 9.504108 35.403698 14.768477
RightForeArm -37.305469 0.000000 4.560608
RightHand -5.416388 -0.000000 10.311390
RightHandThumb1 -24.326973 -0.000000 -32.862282
LeftUpLeg -1.032987 8.296244 2.555707
LeftLeg -6.715241 -0.000000 0.000000
LeftFoot -20.713805 27.859117 -12.984051
LeftToeBase 26.766027 -0.000000 -0.000000
RightUpLeg -1.314133 -11.847983 0.669695
RightLeg -4.277753 -0.000000 0.000000
RightFoot -20.927961 -22.104493 16.419147
RightToeBase 25.848037 -0.000000 -0.000000
3
root 19.050632 35.442360 -20.616944 10.177950 2.256550 -1.694745
Spine -22.593165 -0.960125 1.414705
Head 5.482609 0.811480 -0.292075
LeftShoulder -13.369045 -29.753009 18.896539
LeftArm 4.177655 4.517901 -9.601255
LeftForeArm 9.657447 0.000000 -2.692389
LeftHand -7.362539 0.000000 -8.601687
LeftHandThumb1 -26.253704 0.000000 33.147579
RightShoulder -12.333523 -7.487281 -7.932698
RightArm 9.515541 35.459967 14.788888
RightForeArm -37.354883 -0.000000 4.557611
RightHand -5.430077 0.000000 10.289153
RightHandThumb1 -24.326973 -0.000000 -32.862282
LeftUpLeg -1.030028 8.300912 2.562998
LeftLeg -6.719641 -0.000000 0.000000
LeftFoot -20.716897 27.874103 -12.961091
LeftToeBase 26.802093 -0.000000 -0.000000
RightUpLeg -1.316569 -11.844886 0.678161
RightLeg -4.275672 -0.000000 0.000000
RightFoot -20.937629 -22.095917 16.432666
RightToeBase 25.887099 -0.000000 -0.000000
4
root 19.050544 35.442263 -20.614890 10.166969 2.258482 -1.697260
Spine -22.582810 -0.957512 1.396777
Head 5.505013 0.812215 -0.268804
LeftShoulder -13.378704 -29.744105 18.906248
LeftArm 4.192126 4.530901 -9.602660
LeftForeArm 9.634536 -0.000000 -2.681555
LeftHand -7.391252 -0.000000 -8.582412
LeftHandThumb1 -26.253704 0.000000 33.147579
RightShoulder -12.342132 -7.493826 -7.922399
RightArm 9.515078 35.463589 14.791191
RightForeArm -37.337121 -0.000000 4.563454
RightHand -5.434176 -0.000000 10.293937
RightHandThumb1 -24.326973 -0.000000 -32.862282
LeftUpLeg -1.013383 8.298493 2.569317
LeftLeg -6.724281 -0.000000 0.000000
LeftFoot -20.725792 27.863613 -12.985609
LeftToeBase 26.782474 -0.000000 -0.000000
RightUpLeg -1.306441 -11.853184 0.681351
RightLeg -4.270592 -0.000000 0.000000
RightFoot -20.942815 -22.109177 16.420189
RightToeBase 25.900451 -0.000000 -0.000000
5
root 19.050361 35.442192 -20.614013 10.167128 2.257474 -1.702450
Spine -22.584329 -0.954764 1.381979
Head 5.521089 0.806282 -0.240004
LeftShoulder -13.379914 -29.738241 18.912004
LeftArm 4.189500 4.537442 -9.595041
LeftForeArm 9.600893 -0.000000 -2.663477
LeftHand -7.375748 -0.000000 -8.574292
LeftHandThumb1 -26.253704 0.000000 33.147579
RightShoulder -12.346850 -7.494020 -7.911783
RightArm 9.519959 35.470832 14.792458
RightForeArm -37.325911 -0.000000 4.555915
RightHand -5.439595 -0.000000 10.290219
RightHandThumb1 -24.326973 -0.000000 -32.862282
LeftUpLeg -1.010494 8.299874 2.573124
LeftLeg -6.729110 -0.000000 0.000000
LeftFoot -20.720289 27.876040 -12.973307
LeftToeBase 26.807868 -0.000000 -0.000000
RightUpLeg -1.305580 -11.849429 0.686792
RightLeg -4.271927 -0.000000 0.000000
RightFoot -20.927277 -22.121927 16.419699
RightToeBase 25.814377 -0.000000 -0.000000
6
root 19.051061 35.442300 -20.613094 10.166913 2.252580 -1.699813
Spine -22.584943 -0.945702 1.359331
Head 5.543063 0.799631 -0.228513
LeftShoulder -13.385952 -29.755221 18.919704
LeftArm 4.196836 4.535953 -9.590274
LeftForeArm 9.594398 0.000000 -2.656172
LeftHand -7.394826 0.000000 -8.547408
LeftHandThumb1 -26.253704 0.000000 33.147579
RightShoulder -12.352091 -7.490663 -7.907856
RightArm 9.510796 35.479553 14.796955
RightForeArm -37.313266 -0.000000 4.567059
RightHand -5.428086 -0.000000 10.286177
RightHandThumb1 -24.326973 -0.000000 -32.862282
LeftUpLeg -1.007638 8.302036 2.569482
LeftLeg -6.728739 -0.000000 0.000000
LeftFoot -20.723033 27.875002 -12.985086
LeftToeBase 26.805272 -0.000000 -0.000000
RightUpLeg -1.306932 -11.837425 0.682239
RightLeg -4.267887 -0.000000 0.000000
RightFoot -20.931215 -22.131418 16.414564
RightToeBase 25.845125 -0.000000 -0.000000
